<?xml version="1.0" encoding="UTF-8" standalone="no"?>
<!-- Created with Inkscape (http://www.inkscape.org/) -->
<svg xmlns:svg="http://www.w3.org/2000/svg" xmlns="http://www.w3.org/2000/svg" xmlns:xlink="http://www.w3.org/1999/xlink" version="1.0" width="225" height="152" viewBox="0 0 225 152" id="KitKat_logo"> 
<title id="title3102">Kit Kat logo</title>
<defs id="defs8946" />
<g id="layer2">
<rect width="225" height="152" x="0" y="0" id="background" fill="#ec2227" />
<g id="KitKat_Logo">
<title id="title3096">Kit Kat logo</title>
<g id="K_Background_Border">
<path d="M 97.437,19.558 C 154.111,1.773 209.483,13.808 219.027,46.061 C 228.59,78.364 188.821,119.084 132.126,136.783 C 75.473,154.462 21.466,142.582 11.901,110.287 C 2.357,78.033 47.877,35.118 97.437,19.558" id="KitKat_Background_Shadow_Out_Last" fill="#ba2025" filter="url(#BlurMe)" />
<path d="M 96.296,20.205 C 150.866,3.371 202.909,14.702 212.093,45.371 C 221.298,76.112 184.239,114.874 129.676,131.708 C 75.162,148.53 23.196,137.226 13.991,106.5 C 4.813,75.823 41.79,37.024 96.296,20.205" id="KitKat_Background_White_Outside_Border1" fill="#ffffff" />
<path d="M 128.853,129.281 C 180.678,113.341 216.148,76.245 207.343,46.815 C 198.525,17.34 148.698,6.509 96.888,22.499 C 45.126,38.468 9.628,75.683 18.432,105.107 C 27.222,134.474 77.063,145.186 128.853,129.281" id="KitKat_Background_Border_inside1" fill="#ec2227" />
<path d="M 22.232,84.374 C 26.616,72.516 29.361,68.8 32.141,64.697 C 33.141,63.219 26.954,66.245 20.262,83.58 C 16.342,93.707 18.889,103.242 21.937,104.952 C 23.682,105.945 17.932,96.014 22.232,84.374" id="KitKat_Ring_Highlight_Left2" fill="#fbc9b5" filter="url(#BlurMe)" />
<path d="M 203.178,67.772 C 198.238,82.46 191.22,89.37 186.618,95.022 C 184.964,97.077 198.448,87.583 205.486,68.736 C 210.123,56.294 206.795,44.435 203.233,42.344 C 201.171,41.142 208.019,53.358 203.178,67.772" id="KitKat_Ring_Highlight_Right2" fill="#fbc9b5" filter="url(#BlurMe)" />
<path d="M 128.304,126.684 C 78.182,142.153 31.93,132.251 23.358,103.621 C 14.737,74.781 47.681,40.275 97.802,24.814 C 147.868,9.366 194.323,19.374 202.945,48.213 C 211.518,76.836 178.369,111.244 128.304,126.684" id="KitKat_Background_White_inside1" fill="#ffffff" />
<path d="M 206.26,22.794 C 204.289,22.815 202.713,21.253 202.706,19.247 C 202.699,17.255 204.268,15.658 206.245,15.637 C 208.216,15.616 209.786,17.179 209.793,19.177 C 209.793,21.176 208.244,22.773 206.26,22.794 L 206.26,22.21 C 207.879,22.189 209.223,20.866 209.223,19.184 C 209.216,17.488 207.865,16.193 206.245,16.214 C 204.626,16.228 203.282,17.551 203.282,19.247 C 203.289,20.929 204.641,22.224 206.26,22.209 L 206.26,22.794" id="Registered_Trademark_Circle" fill="#ffffff" />
<path d="M 205.507,21.261 L 204.888,21.268 L 204.881,17.242 L 206.436,17.228 C 207.358,17.214 207.829,17.439 207.829,18.284 C 207.829,19.115 207.274,19.326 206.809,19.333 L 207.879,21.233 L 207.189,21.247 L 206.197,19.39 L 205.501,19.397 L 205.501,18.82 L 206.437,18.806 C 206.894,18.799 207.226,18.757 207.226,18.292 C 207.217,17.877 206.994,17.813 206.451,17.821 L 205.495,17.828 L 205.507,21.261" id="Registered_Trademark_R-mark" fill="#ffffff" />
</g>
<g id="K_Letter_K_1">
<path d="M 97.331,26.939 L 67.653,91.081 L 96.507,130.858 C 92.25,131.281 85.331,131.794 79.089,131.589 L 58.356,104.009 L 58.032,128.606 C 53.915,127.529 48.982,125.98 43.886,123.256 L 43.886,59.671 C 47.032,57.116 55.337,55.512 58.06,55.392 L 58.06,78.47 L 76.161,35.315 C 79.23,33.836 87.907,29.825 97.331,26.939" id="KitKat_Letter_K1b" fill="#ba2025" />
<path d="M 92.271,30.711 L 63.677,91.13 L 91.166,129.034 C 86.592,129.338 82.573,129.526 78.52,129.477 L 55.788,98.757 L 55.956,125.965 C 52.353,124.854 47.554,123.283 44.703,121.736 L 44.696,61.34 C 47.658,58.862 53.493,57.884 55.942,57.476 L 55.921,86.176 L 76.274,37.306 C 77.815,36.482 90.216,31.563 92.271,30.711" id="KitKat_Letter_K1a" fill="#ec2227" filter="url(#BlurMe)" />
<polyline id="KitKat_Highlight_K1_Top1b" points="77.126,38.052 55.971,88.42 55.921,91.665 81.581,36.236 77.126,38.052 " fill="#fbc9b5" filter="url(#BlurMe)" />
<path d="M 48.518,121.919 L 48.518,60.607 C 48.518,60.607 46.351,61.452 45.4,62.416 L 45.4,120.61 C 45.978,120.877 47.884,121.744 48.518,121.919" id="KitKat_Highlight_K1_Left1b" fill="#fbc9b5" filter="url(#BlurMe)" />
<polyline id="KitKat_Highlight_K1b" points="55.9,97.105 78.772,128.324 82.742,128.394 55.879,95.494 55.9,97.105 " fill="#fbc9b5" filter="url(#BlurMe)" />
</g>
<g id="K_Letter_i">
<polyline id="KitKat_Letter_i-stem2" points="80.68,80.939 80.855,106.345 91.785,103.889 91.637,74.599 80.68,80.939 " fill="#ba2025" />
<polyline id="KitKat_Letter_i-stem1" points="81.545,81.32 81.496,103.875 88.484,101.666 88.548,77.377 81.545,81.32 " fill="#ec2227" filter="url(#BlurMe)" />
<polyline id="KitKat_Highlight_i-stem2" points="82.073,81.96 82.087,103.537 84.438,102.743 84.438,80.77 82.073,81.96 " fill="#fbc9b5" filter="url(#BlurMe)" />
<path d="M 90.666,63.929 C 92.299,66.463 91.687,70.488 89.259,72.811 C 86.824,75.133 83.509,74.936 81.869,72.41 C 80.223,69.834 80.765,65.837 83.263,63.479 C 85.768,61.122 89.012,61.361 90.666,63.929" id="KitKat_Letter_i-dotb" fill="#ba2025" />
<path d="M 89.181,64.288 C 89.99,66.336 89.153,69.44 87.175,71.213 C 85.197,72.98 83.368,72.656 82.474,71.241 C 81.51,69.678 81.897,65.871 83.924,63.95 C 85.501,62.465 88.357,62.206 89.181,64.288" id="KitKat_Letter_i-dot1" fill="#ec2227" filter="url(#BlurMe)" />
<path d="M 89.097,64.437 C 88.527,62.326 85.564,62.579 84.1,63.902 C 82.037,65.774 81.574,69.497 82.558,71.214 C 83.374,72.678 85.909,72.586 85.894,71.418 C 85.894,70.679 84.754,70.496 84.458,69.497 C 83.769,67.202 85.225,65.457 86.64,64.965 C 87.788,64.549 89.414,65.597 89.097,64.437" id="KitKat_Highlight_i-dot2" fill="#fbc9b5" filter="url(#BlurMe)" />
</g>
<g id="K_Letter_t_1">
<path d="M 92.827,75.781 L 96.212,74.881 L 96.107,91.468 C 96.093,97.337 99.837,99.562 102.132,100.259 C 106.952,101.73 111.885,98.794 113.569,94.854 C 114.709,92.166 114.709,89.118 114.547,87.521 C 113.512,88.4 110.318,92.285 108.164,90.406 C 107.439,89.772 107.326,88.344 107.333,85.395 L 107.438,71.89 L 114.412,70.025 L 114.482,62.002 L 107.55,63.853 L 107.663,54.88 L 104.25,55.787 L 92.918,71.833 L 92.827,75.781" id="KitKat_Letter_t1_background2" fill="#ba2025" />
<path d="M 97.127,90.968 C 97.12,94.472 99.435,96.704 101.617,97.632 C 103.791,98.569 108.478,97.407 110.449,94.93 C 111.603,93.488 112.427,92.094 112.686,90.201 C 111.244,91.68 108.112,94.213 105.839,92.292 C 104.882,91.475 104.558,90.194 104.615,86.409 L 104.685,70.032 L 111.568,68.188 L 111.61,64.296 L 104.677,66.153 L 104.797,57.181 L 104.375,57.286 L 93.995,71.938 L 93.945,72.896 L 97.239,72.016 L 97.127,90.968" id="KitKat_Letter_t1_background1" fill="#ec2227" filter="url(#BlurMe)" />
<path d="M 106.156,94.445 C 108.739,95.241 111.272,93.875 111.877,91.094 C 111.089,91.982 108.908,93.438 107.211,93.093 C 104.339,92.516 104.881,90.63 103.812,90.588 C 103.024,90.546 102.82,93.424 106.156,94.445" id="KitKat_Letter_Highlight_t1_Righta2" fill="#fbc9b5" filter="url(#BlurMe)" />
<path d="M 102.412,96.698 C 103.249,96.106 99.484,94.621 99.477,91.644 L 99.54,71.417 L 97.331,72.008 L 97.274,90.601 C 97.239,95.621 101.645,97.232 102.412,96.698" id="KitKat_Letter_Highlight_t1_Lefta2" fill="#fbc9b5" filter="url(#BlurMe)" />
<polyline id="KitKat_Letter_Highlight_t1b" points="96.732,71.284 104.354,60.221 104.418,57.44 94.058,72.002 96.732,71.284 " fill="#fbc9b5" filter="url(#BlurMe)" />
</g>
<g id="K_Letter_K_2">
<path d="M 162.331,21.422 L 140.212,75.246 L 163.752,108.654 C 160.353,110.983 152.949,114.847 150.493,115.994 L 131.118,88.85 L 131.118,123.791 C 127.93,124.832 123.405,126.275 116.424,127.95 L 116.424,22.133 C 119.654,21.457 127.487,20.381 130.577,20.162 L 130.767,61.382 L 146.017,19.712 C 150.866,19.838 156.996,20.38 162.331,21.422" id="KitKat_Letter_K2_Background2" fill="#ba2025" />
<path d="M 159.164,22.886 L 136.959,75.246 L 160.444,109.097 C 158.762,110.146 153.061,113.2 150.381,114.466 L 128.169,82.593 L 128.169,122.799 C 125.157,123.89 121.337,125.016 117.248,125.91 L 117.241,23.653 C 121.181,22.921 125.762,22.316 128.155,22.076 L 128.127,70.368 L 146.545,21.513 C 148.179,21.479 157.271,22.556 159.164,22.886" id="KitKat_Letter_K2_Background1" fill="#ec2227" filter="url(#BlurMe)" />
<path d="M 121.082,123.778 L 121.082,24.561 C 121.082,24.561 118.803,24.829 117.958,24.991 L 117.965,124.567 C 118.838,124.327 120.133,124.01 121.082,123.778" id="KitKat_Letter_K2_Highlight_Left2" fill="#fbc9b5" filter="url(#BlurMe)" />
<polyline id="KitKat_Letter_K2_Highlight_Bottom2" points="128.198,80.954 150.177,112.729 153.111,110.927 128.169,79.349 128.198,80.954 " fill="#fbc9b5" filter="url(#BlurMe)" />
<polyline id="KitKat_Letter_K2_Highlight_Top2" points="146.601,23.815 128.169,73.262 128.169,75.528 150.353,24.089 146.601,23.815 " fill="#fbc9b5" filter="url(#BlurMe)" />
</g>
<g id="K_Letter_a">
<path d="M 172.078,57.419 C 171.881,50.529 164.652,47.123 158.361,49.368 C 153.956,50.937 150.339,55.533 148.649,58.291 L 148.593,67.595 C 151.063,64.85 156.418,58.896 159.627,58.136 C 161.569,57.665 162.252,59.699 161.288,61.472 C 160.057,63.773 154.849,66.49 152.069,69.052 C 149.275,71.635 148.198,73.915 147.537,76.765 C 146.453,81.416 149.12,87.04 152.385,88.074 C 155.961,89.201 160.401,88.512 164.441,84.415 C 168.798,87.048 173.105,85.288 174.892,80.298 C 175.603,78.293 175.955,75.274 175.919,73.88 C 174.688,75.443 172.091,75.971 172.091,74.225 L 172.078,57.419" id="KitKat_Letter_A_Background2" fill="#ba2025" />
<path d="M 149.381,58.799 L 149.402,62.761 C 150.74,61.248 155.01,56.181 159.86,55.4 C 162.703,54.928 163.807,58.792 162.069,61.944 C 160.401,64.964 155.293,67.525 152.977,69.806 C 150.542,72.22 149.289,74.401 148.754,77.034 C 148.185,79.884 148.986,83.01 151.618,85.128 C 155.77,88.491 161.935,85.036 163.829,81.489 C 166.777,84.564 169.874,83.572 172.52,79.751 C 173.104,78.899 173.787,77.52 174.026,76.387 C 173.118,77.309 169.345,78.471 169.38,74.466 L 169.324,57.379 C 169.24,50.046 163.201,48.681 158.774,50.187 C 154.308,51.712 150.599,56.927 149.381,58.799" id="KitKat_Letter_A_Background1" fill="#ec2227" filter="url(#BlurMe)" />
<path d="M 162.577,77.962 C 162.499,80.721 160.605,81.987 158.629,82.051 C 156.51,82.101 153.583,80.453 154.04,76.977 C 154.652,72.241 159.579,69.264 162.929,67.118 L 162.577,77.962" id="KitKat_Letter_A_Shadow_Bottom2" fill="#ba2025" filter="url(#BlurMe)" />
<path d="M 161.845,81.087 C 162.606,81.805 164.281,80.488 164.407,76.871 L 164.76,66.026 L 163.008,67.082 L 162.677,78.054 C 162.591,80.834 161.543,80.798 161.845,81.087" id="KitKat_Letter_A_Highlight_Bottom2" fill="#fbc9b5" filter="url(#BlurMe)" />
<path d="M 160.424,64.126 C 163.597,60.854 162.191,64.394 160.374,66.35 C 159.136,67.687 151.423,72.445 151.084,79.448 C 150.993,81.178 151.753,82.84 152.914,84.106 C 154.089,85.394 153.153,86.091 151.323,84.669 C 150.429,83.973 148.664,81.784 148.691,78.928 C 148.775,70.594 157.326,67.336 160.424,64.126" id="KitKat_Letter_A_Highlight_Left2" fill="#fbc9b5" filter="url(#BlurMe)" />
<path d="M 168.56,76.746 C 168.278,75.478 169.081,74.296 169.291,75.338 C 169.896,78.194 172.535,77.309 173.014,77.069 C 173.668,76.739 173.134,77.463 172.902,77.758 C 171.381,79.582 169.08,79.131 168.56,76.746" id="KitKat_Letter_A_Highlight_Right2" fill="#fbc9b5" filter="url(#BlurMe)" />
<path d="M 159.1,50.622 C 164.09,49.616 164.759,51.276 160.227,52.297 C 155.688,53.345 152.091,57.252 151.036,59.44 L 150.994,60.834 C 150.994,60.834 149.86,61.974 149.488,62.516 C 149.488,62.516 149.558,59.44 149.467,58.821 C 151.015,56.399 154.836,51.494 159.1,50.622" id="KitKat_Letter_A_Highlight_TopStem2" fill="#fbc9b5" filter="url(#BlurMe)" />
<path d="M 158.84,79.898 C 158.009,79.714 156.714,78.906 157.067,76.71 C 157.398,74.655 160.592,71.713 161.845,70.785 L 161.634,77.625 C 161.563,79.455 159.783,80.116 158.84,79.898" id="KitKat_Letter_A_Hole1" fill="#ffffff" />
</g>
<g id="K_Letter_t_2">
<path d="M 172.972,56.695 L 176.357,55.794 L 176.258,72.382 C 176.237,78.252 179.982,80.475 182.282,81.178 C 187.095,82.657 192.036,79.714 193.712,75.774 C 194.858,73.086 194.845,70.038 194.69,68.441 C 193.663,69.313 190.461,73.198 188.313,71.326 C 187.582,70.692 187.477,69.257 187.477,66.308 L 187.581,52.803 L 194.563,50.938 L 194.626,42.915 L 187.694,44.766 L 187.813,35.801 L 184.4,36.708 L 173.063,52.747 L 172.972,56.695" id="KitKat_Letter_t2v_Background2" fill="#ba2025" />
<path d="M 177.271,71.889 C 177.264,75.386 179.58,77.624 181.761,78.554 C 183.943,79.482 188.622,78.322 190.593,75.851 C 191.755,74.401 192.571,73.016 192.831,71.115 C 191.388,72.592 188.256,75.133 185.99,73.205 C 185.025,72.389 184.702,71.108 184.759,67.328 L 184.828,50.945 L 191.711,49.108 L 191.755,45.216 L 184.821,47.067 L 184.934,38.094 L 184.519,38.206 L 174.146,52.852 L 174.088,53.816 L 177.383,52.936 L 177.271,71.889" id="KitKat_Letter_t2v_Background1" fill="#ec2227" filter="url(#BlurMe)" />
<path d="M 186.301,75.358 C 188.884,76.153 191.417,74.788 192.023,72.008 C 191.227,72.895 189.053,74.352 187.357,74.014 C 184.493,73.436 185.027,71.551 183.958,71.501 C 183.17,71.459 182.973,74.345 186.301,75.358" id="KitKat_Letter_t2v_Highlight_Bottom2" fill="#fbc9b5" filter="url(#BlurMe)" />
<path d="M 182.557,77.618 C 183.395,77.027 179.629,75.542 179.629,72.558 L 179.686,52.339 L 177.476,52.931 L 177.413,71.524 C 177.392,76.535 181.79,78.153 182.557,77.618" id="KitKat_Letter_t2v_Highlight_Left2" fill="#fbc9b5" filter="url(#BlurMe)" />
<polyline id="KitKat_Letter_t2v_Highlight_Top2" points="176.877,52.205 184.506,41.142 184.563,38.355 174.21,52.922 176.877,52.205 " fill="#fbc9b5" filter="url(#BlurMe)" />
</g>
</g>
<g id="Nestle_Logo">
<title id="title3098">Nestle logo</title>
<path d="M 72.551,19.951 C 72.269,18.677 71.678,17.91 70.953,18.107 C 70.65,18.17 70.32,18.417 69.954,18.91 C 68.786,20.472 67.737,19.951 65.14,19.17 C 62.536,18.389 56.455,16.327 51.17,23.02 C 47.926,20.41 44.653,18.945 41.465,18.417 C 17.763,13.962 -6.918,53.633 23.14,74.071 C 25.209,70.179 26.539,67.456 29.777,64.971 C 34.33,61.994 42.62,58.58 58.11,54.429 C 76.07,49.615 76.591,30.832 72.551,19.951" id="Nestle_Logo_Outline_White" fill="#ffffff" />
<path d="M 19.424,30.339 C 15.032,35.905 12.499,42.979 12.647,50.079 C 12.654,50.572 12.675,51.058 12.71,51.543 C 13.245,58.848 16.644,65.147 22.225,69.651 C 24.112,66.673 26.828,63.359 32.486,60.305 C 38.264,57.194 46.407,54.738 56.097,52.796 C 59.18,52.183 62.072,50.924 64.507,49.178 C 67.181,47.264 69.236,44.843 70.651,41.965 C 71.995,39.235 72.734,36.117 72.875,32.683 C 72.924,31.402 72.896,30.064 72.784,28.685 C 72.552,26.011 72.017,23.139 71.172,20.099 C 69.574,22.013 67.414,21.457 64.852,20.795 C 60.988,19.789 56.21,18.473 51.269,25.687 L 51.212,25.771 L 51.142,25.715 C 46.391,21.823 39.719,19.824 34.434,20.809 C 29.073,21.809 23.654,24.976 19.424,30.339" id="Nestle_Logo_BackgroundShape" fill="#ec2227" />
<path d="M 50.903,27.559 C 52.55,27.243 54.584,22.141 58.61,21.408 C 63.15,20.578 62.368,22.035 66.83,21.169 C 61.741,19.93 56.513,17.875 51.199,25.624 C 50.178,24.779 47.652,22.88 46.244,22.394 C 46.737,24.631 49.179,27.89 50.903,27.559" clip-path="url(#Nestle_Background)" id="Nestle_Logo_Shadow_Shadow_Top2b" fill="#ba2025" filter="url(#BlurMe)" />
<path d="M 12.625,46.87 C 11.605,55.273 14.716,63.852 22.224,69.855 C 26.637,62.845 33.977,57.342 56.097,52.915 C 64.845,51.163 72.776,44.351 72.973,31.95 C 72.684,13.962 71.988,38.938 65.527,43.554 C 53.514,51.5 44.252,43.104 21.514,56.637 L 21.577,60.34 C 21.437,59.748 21.275,57.046 20.775,55.955 C 19.86,53.998 19.396,53.534 18.629,52.443 C 17.904,51.437 16.983,50.324 15.631,48.241 C 14.85,47.039 13.618,38.679 12.625,46.87" clip-path="url(#Nestle_Background)" id="Nestle_Logo_Shadow_Shadow_Left2" fill="#a71e22" filter="url(#BlurMe)" />
<path d="M 44.703,22.752 C 44.668,23.153 42.071,24.026 38.264,25.019 C 35.583,25.716 32.514,26.004 28.756,32.056 C 22.725,41.797 23.584,38.01 20.318,42.598 C 18.524,45.132 16.799,45.449 16.531,45.378 C 16.109,45.273 15.603,43.816 15.658,43.063 C 15.975,38.911 16.833,33.688 23.097,27.623 C 28.332,22.549 33.125,21.767 36.102,21.451 C 38.637,21.176 44.78,21.985 44.703,22.752" clip-path="url(#Nestle_Background)" id="Nestle_Logo_Highlight_Left2" fill="#f9b399" filter="url(#BlurMe)" />
<path d="M 49.222,27.481 C 49.546,27.045 50.01,27.882 50.883,27.686 C 51.932,27.439 52.706,25.793 55.641,23.112 C 59.209,19.846 64.262,21.894 64.241,22.029 C 64.149,22.796 60.137,20.987 56.562,25.659 C 55.295,27.306 54.163,28.847 51.72,29.432 C 50.242,29.79 49.109,27.623 49.222,27.481" clip-path="url(#Nestle_Background)" id="Nestle_Logo_Highlight_Top2" fill="#f8a185" filter="url(#BlurMe)" />
<path d="M 32.225,56.829 C 27.334,59.883 23.597,62.72 21.957,62.171 C 29.832,53.824 38.221,52.1 43.345,51.024 C 42.599,51.797 37.94,53.261 32.225,56.829" clip-path="url(#Nestle_Background)" id="Nestle_Logo_Shadow_Shadow_bottom2" fill="#c82127" filter="url(#BlurMe)" />
<path d="M 76.943,24.174 L 76.429,24.181 L 76.394,20.824 L 77.689,20.803 C 78.463,20.782 78.85,20.972 78.857,21.669 C 78.864,22.366 78.407,22.541 78.02,22.549 L 78.92,24.139 L 78.343,24.146 L 77.512,22.605 L 76.928,22.619 L 76.921,22.141 L 77.702,22.113 C 78.082,22.105 78.357,22.071 78.357,21.683 C 78.343,21.331 78.16,21.282 77.702,21.289 L 76.914,21.303 L 76.943,24.174" id="Nestle_Logo_R_Letter" fill="#ffffff" />
<path d="M 77.59,25.448 C 75.936,25.483 74.606,24.188 74.592,22.513 C 74.571,20.852 75.866,19.508 77.519,19.472 C 79.166,19.444 80.489,20.732 80.51,22.407 C 80.525,24.062 79.244,25.412 77.59,25.448 L 77.583,24.962 C 78.927,24.934 80.046,23.815 80.033,22.407 C 80.011,20.992 78.871,19.93 77.527,19.958 C 76.169,19.986 75.064,21.099 75.078,22.506 C 75.092,23.913 76.232,24.99 77.583,24.962 L 77.59,25.448" id="Nestle_Logo_R_Ring" fill="#ffffff" />
<path d="M 59.771,29.445 L 59.771,30.05 C 59.771,30.303 59.933,30.479 60.144,30.444 L 66.795,29.367 C 67.09,29.318 67.329,28.987 67.329,28.621 L 67.344,27.629 C 67.344,27.263 67.104,26.982 66.809,27.073 C 66.809,27.073 60.384,28.798 60.165,28.861 C 59.918,28.938 59.778,29.199 59.771,29.445" id="Nestle_Logo_e2-mark" fill="#ffffff" filter="url(#blur1)" />
<path d="M 67.66,35.582 C 67.682,33.02 66.464,30.663 63.551,31.149 C 60.778,31.606 59.181,34.464 59.159,37.194 C 59.138,40.108 60.806,42.296 63.488,41.713 C 65.268,41.332 67,39.735 67.337,37.828 C 67.387,37.574 67.253,37.279 66.964,37.342 L 65.718,37.589 C 65.493,37.631 65.303,37.799 65.19,38.026 C 64.811,38.736 64.275,39.314 63.495,39.483 C 62.348,39.714 61.567,38.807 61.51,37.646 L 66.95,36.583 C 67.435,36.49 67.653,36.131 67.66,35.582 M 61.544,35.61 C 61.643,34.442 62.523,33.428 63.536,33.246 C 64.521,33.069 65.38,33.774 65.464,34.892 L 61.544,35.61 z" id="Nestle_Logo_e2" fill="#ffffff" filter="url(#blur1)" />
<path d="M 58.504,29.333 C 58.504,28.876 58.117,28.566 57.779,28.629 L 56.872,28.776 C 56.534,28.833 56.252,29.248 56.252,29.698 L 56.302,42.338 C 56.295,42.796 56.569,43.098 56.914,43.014 L 57.808,42.788 C 58.145,42.704 58.547,42.331 58.547,41.888 L 58.504,29.333" id="Nestle_Logo_l" fill="#ffffff" filter="url(#blur1)" />
<path d="M 54.352,43.725 C 52.642,44.133 51.572,42.754 51.579,40.924 L 51.607,35.667 L 51.114,35.766 C 50.847,35.822 50.629,35.597 50.629,35.259 L 50.636,34.373 C 50.636,34.035 50.854,33.733 51.122,33.676 L 51.628,33.585 L 51.649,30.341 C 51.649,29.883 51.944,29.461 52.296,29.405 L 53.275,29.25 C 53.641,29.193 53.929,29.51 53.929,29.961 L 53.908,33.17 L 55.386,32.895 C 55.647,32.846 55.858,33.063 55.858,33.394 L 55.85,34.253 C 55.85,34.591 55.632,34.886 55.379,34.936 L 53.901,35.225 L 53.873,40.045 C 53.866,40.974 54.309,41.516 55.112,41.333 L 55.253,41.298 C 55.527,41.242 55.746,41.46 55.746,41.826 L 55.739,42.762 C 55.731,43.114 55.506,43.445 55.239,43.508 L 54.352,43.725" id="Nestle_Logo_t" fill="#ffffff" filter="url(#blur1)" />
<path d="M 46.991,36.335 C 46.237,36.49 45.646,36.884 45.641,37.7 C 45.641,38.234 46.106,38.325 46.598,38.389 C 46.887,38.424 48.161,38.565 48.696,38.614 C 50.011,38.762 50.828,39.663 50.821,41.19 C 50.807,43.858 48.618,45.209 46.999,45.603 C 44.698,46.18 43.009,44.976 43.016,43.298 C 43.016,42.88 43.241,42.612 43.438,42.57 L 44.114,42.387 C 44.458,42.302 45.162,42.232 45.282,42.598 C 45.507,43.231 46.253,43.485 47.013,43.309 C 47.815,43.119 48.54,42.648 48.54,41.782 C 48.546,41.261 48.089,41.162 47.583,41.113 C 47.104,41.064 46.133,40.98 45.556,40.923 C 44.268,40.783 43.212,40.036 43.212,38.39 C 43.226,36.229 44.753,34.589 46.998,34.167 C 49.13,33.766 50.595,34.891 50.587,36.461 C 50.587,36.75 50.383,36.982 50.207,37.024 L 49.151,37.235 C 48.884,37.299 48.687,37.277 48.588,37.003 C 48.377,36.419 47.786,36.18 46.991,36.335" id="Nestle_Logo_s" fill="#ffffff" filter="url(#blur1)" />
<path d="M 42.62,40.537 C 42.627,37.602 41.297,34.934 38.186,35.561 C 35.223,36.159 33.513,39.508 33.506,42.668 C 33.498,46.039 35.307,48.502 38.172,47.743 C 40.079,47.236 41.93,45.47 42.289,43.288 C 42.338,42.978 42.19,42.647 41.888,42.725 L 40.551,43.056 C 40.298,43.112 40.093,43.316 39.981,43.569 C 39.593,44.406 39.023,44.949 38.172,45.167 C 36.948,45.477 36.103,44.442 36.047,43.105 L 41.86,41.712 C 42.388,41.592 42.62,41.163 42.62,40.537 M 36.068,40.761 C 36.167,39.417 37.089,38.221 38.179,37.981 C 39.256,37.749 40.157,38.537 40.248,39.811 L 36.068,40.761 z" id="Nestle_Logo_e" fill="#ffffff" filter="url(#blur1)" />
<path d="M 49.813,30.086 L 30.875,33.154 C 30.382,33.238 29.988,33.774 29.988,34.35 L 30.058,44.189 C 30.058,44.189 25.66,35.377 25.336,34.794 C 25.09,34.357 24.562,34.02 23.83,34.147 L 22.141,34.464 C 21.606,34.555 21.156,35.096 21.156,35.695 L 21.156,50.812 C 21.156,51.41 21.607,51.783 22.141,51.643 L 23.154,51.332 C 23.668,51.212 24.097,50.622 24.097,50.037 L 24.027,39.615 C 24.027,39.615 28.7,48.672 28.861,48.919 C 29.136,49.383 29.544,49.658 30.219,49.489 L 31.732,49.088 C 32.224,48.962 32.612,48.412 32.612,47.849 L 32.64,35.273 L 49.798,32.31 C 50.08,32.261 50.305,31.937 50.305,31.579 L 50.312,30.636 C 50.313,30.283 50.087,30.029 49.813,30.086" id="Nestle_Logo_N" fill="#ffffff" filter="url(#blur1)" />
<path d="M 21.282,55.872 C 42.803,41.994 56.28,52.283 67.252,41.5 C 60.644,54.576 39.242,43.21 21.282,61.354 L 21.282,55.872" id="Nestle_Logo_Underline" fill="#ffffff" filter="url(#blur1)" />
<defs id="defs3086">
<clipPath id="Nestle_Background">
<use id="use3088" x="0" y="0" width="225" height="152" xlink:href="#Nestle_Logo_BackgroundShape" /></clipPath>
</defs>
</g>
<defs id="defs2610">
<filter id="blur1">
<feFlood flood-opacity="1" result="colors1" flood-color="#941a1d" id="feFlood2688" />
<feOffset result="Offset" in="SourceAlpha" dy="1" dx=".5" id="feOffset1" />
<feComposite result="colors2" in2="Offset" in="colors1" operator="in" id="feComposite2694" />
<feGaussianBlur result="blur1" stdDeviation=".2" in="colors2" id="feGaussianBlur2614" />
<feBlend mode="screen" in2="SourceGraphic" in="blur1" id="feBlend2676" />
</filter>
<filter id="BlurMe">
<feGaussianBlur in="SourceGraphic" id="feGauss1" stdDeviation="1" />
</filter>
</defs>
</g>
</svg>